<mxfile host="app.diagrams.net" modified="2024-02-02T23:46:49.265Z" agent="Mozilla/5.0 (Windows NT 10.0; Win64; x64) AppleWebKit/537.36 (KHTML, like Gecko) Chrome/121.0.0.0 Safari/537.36 Edg/121.0.0.0" etag="LnOgU5lqm6MAZoaLGtgY" version="23.1.1" type="device">
  <diagram name="PÃ¡gina-1" id="mDMp3vT1Z1gvCx3xDoLJ">
    <mxGraphModel dx="1339" dy="785" grid="1" gridSize="10" guides="1" tooltips="1" connect="1" arrows="1" fold="1" page="1" pageScale="1" pageWidth="827" pageHeight="1169" math="0" shadow="0">
      <root>
        <mxCell id="0" />
        <mxCell id="1" parent="0" />
        <mxCell id="Pb96vG1NCiUh-c-Fs616-4" value="" style="edgeStyle=orthogonalEdgeStyle;rounded=0;orthogonalLoop=1;jettySize=auto;html=1;" edge="1" parent="1" source="Pb96vG1NCiUh-c-Fs616-1" target="Pb96vG1NCiUh-c-Fs616-3">
          <mxGeometry relative="1" as="geometry" />
        </mxCell>
        <mxCell id="Pb96vG1NCiUh-c-Fs616-1" value="" style="rounded=1;whiteSpace=wrap;html=1;" vertex="1" parent="1">
          <mxGeometry x="350" y="370" width="120" height="60" as="geometry" />
        </mxCell>
        <mxCell id="Pb96vG1NCiUh-c-Fs616-2" value="" style="endArrow=none;dashed=1;html=1;rounded=0;" edge="1" parent="1">
          <mxGeometry width="50" height="50" relative="1" as="geometry">
            <mxPoint x="390" y="430" as="sourcePoint" />
            <mxPoint x="440" y="380" as="targetPoint" />
          </mxGeometry>
        </mxCell>
        <mxCell id="Pb96vG1NCiUh-c-Fs616-3" value="" style="ellipse;whiteSpace=wrap;html=1;rounded=1;" vertex="1" parent="1">
          <mxGeometry x="570" y="360" width="80" height="80" as="geometry" />
        </mxCell>
      </root>
    </mxGraphModel>
  </diagram>
</mxfile>
